<svg version="1.1" xmlns="http://www.w3.org/2000/svg" xmlns:cc="http://creativecommons.org/ns#" xmlns:dc="http://purl.org/dc/elements/1.1/" xmlns:inkscape="http://www.inkscape.org/namespaces/inkscape" xmlns:rdf="http://www.w3.org/1999/02/22-rdf-syntax-ns#" xmlns:sodipodi="http://sodipodi.sourceforge.net/DTD/sodipodi-0.dtd" xmlns:svg="http://www.w3.org/2000/svg" xmlns:xlink="http://www.w3.org/1999/xlink" id="CoreSvg" width="1164" height="487" style="" class="PreventCursorChange" sbt-layout-type="StoryboardGrid"><defs><filter id="grayscale"  inkscape:menu="Color" inkscape:menu-tooltip="Render in shades of gray by reducing saturation to zero">  <feColorMatrix color-interpolation-filters="sRGB" type="matrix" values="0.3333 0.3333 0.3333 0 0 0.3333 0.3333 0.3333 0 0 0.3333 0.3333 0.3333 0 0 0 0 0 1 0"/> </filter> <filter id="sepia"  inkscape:menu="Color" inkscape:menu-tooltip="Render in warm sepia tones">  <feColorMatrix color-interpolation-filters="sRGB" values="0.219 0.703 0.078 0 0 0.201 0.659 0.068 0 0 0.165 0.577 0.062 0 0 0 0 0 1 0"/> </filter><filter id="filter02"  inkscape:menu="Image effects" inkscape:menu-tooltip="Detect color edges and retrace them in grayscale" x="0" y="0" width="1" height="1" color-interpolation-filters="sRGB">  <feConvolveMatrix bias="0" result="r0" preserveAlpha="true" targetY="1" targetX="1" divisor="1" in="SourceGraphic" kernelMatrix="1 1 1 1 -8 1 1 1 1" order="3 3"/>    <feColorMatrix values="-0.25 -0.4 -0.15 0 1 -0.25 -0.4 -0.15 0 1 -0.25 -0.4 -0.15 0 1 0 0 0 1 0" result="r3"/> </filter><filter  inkscape:menu="Image Paint and Draw" inkscape:menu-tooltip="Like Pencil, but a bit darker" style="color-interpolation-filters:sRGB;" id="Pen-Filter">                                            <feConvolveMatrix order="3 3" kernelMatrix="1 1 1 1 -8 1 1 1 1" in="SourceGraphic" divisor="1" targetX="1" targetY="1" preserveAlpha="true" result="result0" bias="0" id="feConvolveMatrix11069"/>                                            <feColorMatrix result="result3" values="0 -100 0 0 1 0 -100 0 0 1 0 -100 0 0 1 0 0 0 1 0 " id="feColorMatrix11071"/>                                        </filter> <filter id="filter11"  inkscape:menu="Bumps" inkscape:menu-tooltip="Canvas Bumps with a diffuse light" color-interpolation-filters="sRGB">  <feTurbulence baseFrequency="0.2" seed="300" numOctaves="7" result="r1" type="turbulence"/>  <feDisplacementMap in2="r1" xChannelSelector="R" result="r6"/>  <feBlend in2="SourceGraphic" result="fbSourceGraphic" mode="screen" in="r6"/>  <feColorMatrix values="1 0 0 -1 0 1 0 1 -1 0 1 0 0 -1 0 -0.8 -1 0 4 -2.5 " result="fbSourceGraphicAlpha"/>  <feGaussianBlur stdDeviation="0.5" in="fbSourceGraphicAlpha" result="r0"/>  <feDiffuseLighting result="r5" surfaceScale="15" diffuseConstant="0.4"><feDistantLight azimuth="235" elevation="25"/></feDiffuseLighting>  <feComposite in2="SourceGraphic" result="r4" operator="arithmetic" k2="0.9" k3="0.9"/>  <feComposite in2="SourceGraphic" in="r4" result="r2" operator="in"/> </filter><filter id="filter17"  inkscape:menu="ABCs" inkscape:menu-tooltip="Basic diffuse bevel to use for building textures" color-interpolation-filters="sRGB">  <feGaussianBlur stdDeviation="6" in="SourceGraphic" result="r0"/>  <feDiffuseLighting diffuseConstant="1" surfaceScale="10" result="r5"><feDistantLight elevation="25" azimuth="235"/></feDiffuseLighting>  <feComposite in2="SourceGraphic" k1="1" in="r5" result="r4" operator="arithmetic" k2="0" k3="0.6"/> </filter><filter id="filter13403"  inkscape:menu="Blurs" inkscape:menu-tooltip="Blur the contents of objects, preserving the outline" color-interpolation-filters="sRGB">      <feColorMatrix id="feColorMatrix13405" values="1 0 0 0 0 0 1 0 0 0 0 0 1 0 0 0 0 0 1 0" result="result7"/>      <feGaussianBlur id="feGaussianBlur13407" result="result6" stdDeviation="3"/>      <feComposite id="feComposite13409" in2="result7" operator="atop" in="result6" result="result91"/>      <feComposite id="feComposite13411" in2="result91" operator="in"/>    </filter><filter id="filter01"  inkscape:menu="Image effects" inkscape:menu-tooltip="Glowing image content without blurring it" height="1" y="0" width="1" x="0" color-interpolation-filters="sRGB">          <feGaussianBlur stdDeviation="5" result="r3"/>          <feComposite in2="r3" operator="arithmetic" in="r3" k1="0.5" k3="0.5" result="r1"/>          <feBlend in2="r1" result="r5" mode="screen" in="SourceGraphic"/>          <feBlend in2="r5" mode="darken" in="r5" result="r6"/>          <feComposite in2="SourceGraphic" operator="in"/>         </filter> <filter id="filter10"  x="-0.05" y="-0.05" width="1.1" height="1.1" inkscape:menu="Bumps" inkscape:menu-tooltip="Thick painting effect with turbulence" color-interpolation-filters="sRGB" disabled="disabled">  <feGaussianBlur result="r6" stdDeviation="0.9"/>  <feTurbulence type="fractalNoise" baseFrequency="0.12" numOctaves="3" result="r2"/>  <feDisplacementMap in2="r2" yChannelSelector="A" xChannelSelector="R" scale="10" result="r5" in="r6"/>  <feBlend in2="r5" in="r6" mode="lighten" result="fbSourceGraphic"/>  <feColorMatrix result="r2" type="luminanceToAlpha" in="fbSourceGraphic"/>  <feDiffuseLighting diffuseConstant="0.65" result="r1" surfaceScale="-4"><feDistantLight azimuth="225" elevation="35"/></feDiffuseLighting>  <feComposite in2="fbSourceGraphic" result="r3" k3="0.5" k1="1.37" in="r1" operator="arithmetic"/>  <feComposite in2="r3" result="r5" operator="in" in="r3"/> </filter></defs>                  <g id="CellDefinition">                                                                                     <text id="watermark" x="10" y="475" class="DisableSelection" unselectable="on" style="font-weight: bold; font-size: 16px; font-family: roboto;">Create your own at Storyboard That</text>                 <g id="ImageAttributionGroup"/><rect x="12" y="12" width="372" height="336" fill="white" stroke="black" stroke-dasharray="" opacity="1" id="cell_R0C0" stroke-width="3" rx="2" ry="2"/><g id="DescriptionGroup"><g id="c_descr_R0C0" transform="translate(12, 360)rotate(0, 186,45)" class="activeShape"><g id="c_descr_R0C0_scale" transform="scale(1, 1)"><g id="c_descr_R0C0_natural" transform="translate(0,0)"><rect x="0" y="0" width="372" height="90" fill="rgb(255, 255, 255)" stroke="black" opacity="1" id="Textables_c_descr_R0C0_0" stroke-width="3" rx="2" ry="2"/><rect x="3" y="3" width="366" height="84" fill="none" opacity="1" id="c_descr_R0C0_TextBoxArea"/></g></g><g id="c_descr_R0C0_text"><text x="186" y="49" id="ts_2034" style="font-size:12pt;font-family:'Francois One';fill:#000000; text-anchor:middle;" class="DisableSelection">It is said that whenever one door closes... </text></g></g><g id="c_descr_R0C1" transform="translate(396, 360)rotate(0, 186,45)" class="activeShape"><g id="c_descr_R0C1_scale" transform="scale(1, 1)"><g id="c_descr_R0C1_natural" transform="translate(0,0)"><rect x="0" y="0" width="372" height="90" fill="rgb(255, 255, 255)" stroke="black" opacity="1" id="Textables_c_descr_R0C1_0" stroke-width="3" rx="2" ry="2"/><rect x="3" y="3" width="366" height="84" fill="none" opacity="1" id="c_descr_R0C1_TextBoxArea"/></g></g><g id="c_descr_R0C1_text"><text x="186" y="49" id="ts_2088" style="font-size:12pt;font-family:'Francois One';fill:#000000; text-anchor:middle;" class="DisableSelection">... another one opens up. </text></g></g><g id="c_descr_R0C2" transform="translate(780, 360)rotate(0, 186,45)" class="activeShape"><g id="c_descr_R0C2_scale" transform="scale(1, 1)"><g id="c_descr_R0C2_natural" transform="translate(0,0)"><rect x="0" y="0" width="372" height="90" fill="rgb(255, 255, 255)" stroke="black" opacity="1" id="Textables_c_descr_R0C2_0" stroke-width="3" rx="2" ry="2"/><rect x="3" y="3" width="366" height="84" fill="none" opacity="1" id="c_descr_R0C2_TextBoxArea"/></g></g><g id="c_descr_R0C2_text"><text x="186" y="49" id="ts_2250" style="font-size:12pt;font-family:'Francois One';fill:#000000; text-anchor:middle;" class="DisableSelection">Or you could simply open a closed door. </text></g></g></g><g id="StoryboardTitlesGroup"/><rect x="396" y="12" width="372" height="336" fill="white" stroke="black" stroke-dasharray="" opacity="1" id="cell_R0C1" stroke-width="3" rx="2" ry="2"/><rect x="780" y="12" width="372" height="336" fill="white" stroke="black" stroke-dasharray="" opacity="1" id="cell_R0C2" stroke-width="3" rx="2" ry="2"/><g id="StoryboardLayoutLinesGroup"/></g>                   <g id="sbt_1952" class="activeShape" transform="translate(518.093318939209, 25.457626342773438)rotate(0, 95.78518497129068,152.27179259063882)"><g id="sbt_1952_scale" transform="scale(2.3274250743278744, 2.3274250743278744)"><g id="sbt_1952_natural" transform="translate(-30.909997940063477,-6.9500017166137695)"> <!-- Generator: Adobe Illustrator 14.0.0, SVG Export Plug-In . SVG Version: 6.00 Build 43363)  -->  <svg sbtid="2:cHJvcHMtZnVybml0dXJlLW9wZW5kb29yMS1jb2xvcg==" version="1.1" id="sbt_1952_svgImage" xmlns="http://www.w3.org/2000/svg" xmlns:xlink="http://www.w3.org/1999/xlink" x="0px" y="0px" width="144px" height="144px" viewBox="0 0 144 144" enable-background="new 0 0 144 144" > <g>  <polygon fill="#DDCFB3" points="31.88,11.5 31.88,126.29 37.98,126.29 38.14,17.01 82.45,17.01 82.29,126.29 88.71,126.29    88.71,11.5  "/>  <g>   <path d="M31.13,11.5c0,38.26,0,76.53,0,114.79c0,0.41,0.34,0.75,0.75,0.75c2.03,0,4.07,0,6.1,0c0.41,0,0.75-0.34,0.75-0.75    c0.04-24.11,0.07-48.23,0.11-72.34c0.02-11.56,0.03-23.12,0.05-34.69c0-0.73,0-1.47,0-2.2c0,0.79-1.3,0.7-0.05,0.7    c1.02,0,2.03,0,3.05,0c7.29,0,14.57,0,21.86,0c5.9,0,11.79,0,17.69,0c1.59,0,0.25-1.18,0.25-0.17c0,1.16,0,2.32,0,3.48    c-0.02,11.92-0.04,23.84-0.05,35.75c-0.03,23.16-0.07,46.31-0.1,69.47c0,0.41,0.34,0.75,0.75,0.75c2.14,0,4.28,0,6.42,0    c0.41,0,0.75-0.34,0.75-0.75c0-38.26,0-76.53,0-114.79c0-0.41-0.34-0.75-0.75-0.75c-18.94,0-37.89,0-56.83,0    c-0.97,0-0.97,1.5,0,1.5c11.76,0,23.53,0,35.29,0c6.33,0,12.66,0,18.99,0c0.67,0,1.33,0,2,0c1.09,0-0.2,0.05-0.2-0.7    c0,0.8,0,1.6,0,2.39c0,27.43,0,54.87,0,82.3c0,9.78,0,19.56,0,29.34c0,0.22,0,0.45,0,0.67c0-0.71,1.23-0.7,0.08-0.7    c-0.85,0-1.7,0-2.54,0s-1.7,0-2.54,0c-1.15,0,0.08,0,0.08,0.7c0-0.3,0-0.6,0-0.9c0.01-3.73,0.01-7.46,0.02-11.19    c0.04-29.17,0.09-58.34,0.13-87.51c0-3.21,0.01-6.42,0.01-9.63c0-0.41-0.34-0.75-0.75-0.75c-14.77,0-29.54,0-44.31,0    c-0.41,0-0.75,0.34-0.75,0.75c-0.04,24.11-0.07,48.23-0.11,72.34c-0.02,11.56-0.03,23.12-0.05,34.69c0,0.73,0,1.47,0,2.2    c0-0.67,1.22-0.7,0.12-0.7c-0.81,0-1.61,0-2.42,0s-1.61,0-2.42,0c-1.11,0,0.12,0.55,0.12,0.65c0-2.65,0-5.3,0-7.95    c0-35.58,0-71.16,0-106.75C32.63,10.53,31.13,10.53,31.13,11.5z"/>  </g> </g> <g>  <polygon fill="#DDCFB3" points="83.68,124.91 83.84,15.62 36.76,15.62 36.6,124.91 33.27,124.91 33.27,12.89 87.32,12.89    87.32,124.91  "/>  <g>   <path d="M84.43,124.91c0.05-36.43,0.11-72.85,0.16-109.28c0-0.41-0.34-0.75-0.75-0.75c-15.69,0-31.39,0-47.08,0    c-0.41,0-0.75,0.34-0.75,0.75c-0.04,24.11-0.07,48.23-0.11,72.34c-0.02,11.56-0.03,23.12-0.05,34.69c0,0.73,0,1.47,0,2.2    c0-0.88,1.19-0.7-0.42-0.7c-1.66,0-1.41-0.43-1.41,0.74c0-0.24,0-0.48,0-0.72c0-3.47,0-6.94,0-10.42c0-29.26,0-58.53,0-87.79    c0-3.91,0-7.81,0-11.72c0-1.89,0.2-0.61-0.66-0.61c1.56,0,3.11,0,4.67,0c14.43,0,28.86,0,43.28,0c1.73,0,3.45,0,5.18,0    c1.41,0,0.08-1.23,0.08-0.19c0,3.12,0,6.24,0,9.36c0,13.54,0,27.08,0,40.62c0,14.47,0,28.94,0,43.4c0,4.71,0,9.42,0,14.14    c0,1.12,0,2.25,0,3.37c0,0.18,0,0.37,0,0.55c0-1.1,0.66-0.74-1.07-0.74c-0.61,0-1.21,0-1.82,0c-0.97,0-0.97,1.5,0,1.5    c1.21,0,2.43,0,3.64,0c0.41,0,0.75-0.34,0.75-0.75c0-37.34,0-74.68,0-112.02c0-0.41-0.34-0.75-0.75-0.75c-18.02,0-36.04,0-54.06,0    c-0.41,0-0.75,0.34-0.75,0.75c0,37.34,0,74.68,0,112.02c0,0.41,0.34,0.75,0.75,0.75c1.11,0,2.22,0,3.33,0    c0.41,0,0.75-0.34,0.75-0.75c0.04-24.11,0.07-48.23,0.11-72.34C37.47,41,37.49,29.44,37.5,17.88c0-0.74,0-1.47,0-2.21    c0,0.78-1.3,0.7-0.08,0.7c0.97,0,1.94,0,2.91,0c7.15,0,14.3,0,21.45,0c6.5,0,13.01,0,19.51,0c0.7,0,1.41,0,2.11,0    c0.94,0-0.32-0.62-0.32-0.64c0,0.94,0,1.87,0,2.81c-0.02,11.66-0.03,23.32-0.05,34.98c-0.04,23.8-0.07,47.59-0.1,71.39    C82.93,125.88,84.43,125.87,84.43,124.91z"/>  </g> </g> <g>  <polygon fill="#B0A690" points="82.45,17.01 109.58,7.82 109.58,136.89 82.29,126.29  "/>  <g>   <path d="M82.65,17.73c5.62-1.9,11.23-3.81,16.85-5.71c2.95-1,5.9-2,8.84-3c1.92-0.65,0.49-1.57,0.49-0.57c0,9.02,0,18.05,0,27.07    c0,29.89,0,59.78,0,89.68c0,3.5,0,6.99,0,10.49c0,2.01,0,0.11,0.79,0.41c-2.4-0.93-4.79-1.86-7.19-2.79    c-6.43-2.5-12.87-5-19.3-7.49c-0.83-0.32-0.09,1.08-0.08-0.47c0-1.47,0-2.95,0.01-4.42c0.04-28.69,0.08-57.39,0.13-86.08    c0.01-5.94,0.02-11.89,0.03-17.83c0-0.97-1.5-0.97-1.5,0c-0.05,36.43-0.11,72.85-0.16,109.28c0,0.36,0.24,0.6,0.55,0.72    c9.1,3.53,18.19,7.06,27.29,10.6c0.46,0.18,0.95-0.27,0.95-0.72c0-43.02,0-86.05,0-129.07c0-0.47-0.48-0.88-0.95-0.72    c-9.04,3.07-18.09,6.13-27.13,9.2C81.34,16.6,81.73,18.05,82.65,17.73z"/>  </g> </g> <g>  <polyline fill="#B0A690" points="109.58,7.82 112.47,7.82 112.47,136.89 109.58,136.89  "/>  <g>   <path d="M109.58,8.57c0.62,0,1.25,0,1.87,0c1.47,0,0.27,0.15,0.27-0.71c0,0.2,0,0.4,0,0.6c0,1.19,0,2.38,0,3.57    c0,4.71,0,9.41,0,14.12c0,15.07,0,30.14,0,45.21c0,15.25,0,30.49,0,45.74c0,4.93,0,9.86,0,14.78c0,1.27,0,2.54,0,3.81    c0,0.32,0,0.63,0,0.95c0,0.07,0,0.14,0,0.21c0-1.05,0.57-0.71-1.12-0.71c-0.34,0-0.68,0-1.02,0c-0.97,0-0.97,1.5,0,1.5    c0.96,0,1.93,0,2.89,0c0.41,0,0.75-0.34,0.75-0.75c0-43.02,0-86.05,0-129.07c0-0.41-0.34-0.75-0.75-0.75c-0.96,0-1.93,0-2.89,0    C108.61,7.07,108.61,8.57,109.58,8.57L109.58,8.57z"/>  </g> </g> <g>  <g>   <rect x="100.8" y="77.31" fill="#C7B570" width="3.53" height="2.41"/>   <g>    <path d="M104.33,78.98c-1.18,0-2.35,0-3.53,0c0.25,0.25,0.5,0.5,0.75,0.75c0-0.8,0-1.61,0-2.41c-0.25,0.25-0.5,0.5-0.75,0.75     c1.18,0,2.35,0,3.53,0c-0.25-0.25-0.5-0.5-0.75-0.75c0,0.8,0,1.61,0,2.41c0,0.97,1.5,0.97,1.5,0c0-0.8,0-1.61,0-2.41     c0-0.41-0.34-0.75-0.75-0.75c-1.18,0-2.35,0-3.53,0c-0.41,0-0.75,0.34-0.75,0.75c0,0.8,0,1.61,0,2.41c0,0.41,0.34,0.75,0.75,0.75     c1.18,0,2.35,0,3.53,0C105.3,80.48,105.3,78.98,104.33,78.98z"/>   </g>  </g>  <g>   <ellipse fill="#C7B570" cx="100.28" cy="77.93" rx="3.01" ry="3.42"/>   <g>    <path d="M102.54,77.93c-0.07,1.34-0.82,2.58-2.26,2.67c-1.44,0.09-2.2-1.48-2.26-2.67c-0.07-1.33,0.92-2.58,2.26-2.67     C101.72,75.17,102.48,76.73,102.54,77.93c0.05,0.96,1.55,0.97,1.5,0c-0.11-2.2-1.48-4.02-3.76-4.17     c-2.28-0.15-3.66,2.2-3.76,4.17c-0.11,2.19,1.64,4.03,3.76,4.17c2.28,0.15,3.66-2.2,3.76-4.17     C104.09,76.96,102.59,76.96,102.54,77.93z"/>   </g>  </g> </g> </svg> </g></g></g><g id="sbt_1953" class="activeShape" transform="translate(127.9989185333252, 28.05474090576172)rotate(0, 77.91677718412564,153.47314688702576)"><g id="sbt_1953_scale" transform="scale(2.837464076686158, 2.3434593356725455)"><g id="sbt_1953_natural" transform="translate(-44.7599983215332,-6.310013771057129)"> <!-- Generator: Adobe Illustrator 14.0.0, SVG Export Plug-In . SVG Version: 6.00 Build 43363)  -->  <svg sbtid="2:cHJvcHMtZnVybml0dXJlLWRvb3IxLWNvbG9y" version="1.1" id="sbt_1953_svgImage" xmlns="http://www.w3.org/2000/svg" xmlns:xlink="http://www.w3.org/1999/xlink" x="0px" y="0px" width="144px" height="144px" viewBox="0 0 144 144" enable-background="new 0 0 144 144" > <g>  <rect x="45.73" y="7.29" fill="#B0A690" width="53.2" height="129.26"/>  <g>   <path d="M45.73,8.04c12.12,0,24.24,0,36.37,0c5.41,0,10.82,0,16.23,0c1.04,0-0.15-1.35-0.15-0.11c0,1.19,0,2.38,0,3.57    c0,27.97,0,55.94,0,83.91c0,12.04,0,24.08,0,36.11c0,1.27,0,2.55,0,3.82c0,1.79,0,0.45,0.53,0.45c-4.92,0-9.85,0-14.77,0    c-12.7,0-25.41,0-38.11,0c0.82,0,0.65,1.32,0.65-0.45c0-1.42,0-2.83,0-4.25c0-5.04,0-10.08,0-15.13c0-36.23,0-72.46,0-108.68    c0-0.97-1.5-0.97-1.5,0c0,43.09,0,86.17,0,129.26c0,0.41,0.34,0.75,0.75,0.75c17.73,0,35.46,0,53.2,0c0.41,0,0.75-0.34,0.75-0.75    c0-43.08,0-86.17,0-129.26c0-0.41-0.34-0.75-0.75-0.75c-17.73,0-35.46,0-53.2,0C44.76,6.54,44.76,8.04,45.73,8.04z"/>  </g> </g> <g>  <rect x="50.85" y="15.35" fill="#F5F5F5" width="42.97" height="47.11"/>  <g>   <path d="M50.85,16.1c12.39,0,24.77,0,37.16,0c1.85,0,3.7,0,5.54,0c0.59,0-0.48-1.27-0.48-0.32c0,0.87,0,1.74,0,2.61    c0,7,0,14.01,0,21.01c0,6.84,0,13.68,0,20.52c0,0.7,0,1.41,0,2.11c0,0.95,1.07-0.32,0.48-0.32c-2.09,0-4.17,0-6.26,0    c-7.73,0-15.46,0-23.19,0c-3.13,0-6.26,0-9.39,0c-0.94,0-1.88,0-2.82,0c-1.59,0-0.28-0.1-0.28,0.64c0-15.67,0-31.33,0-47    c0-0.97-1.5-0.97-1.5,0c0,15.7,0,31.41,0,47.11c0,0.41,0.34,0.75,0.75,0.75c14.32,0,28.64,0,42.97,0c0.41,0,0.75-0.34,0.75-0.75    c0-15.7,0-31.41,0-47.11c0-0.41-0.34-0.75-0.75-0.75c-14.32,0-28.64,0-42.97,0C49.88,14.6,49.88,16.1,50.85,16.1z"/>  </g> </g> <g>  <rect x="52.56" y="17.06" fill="#A0B8C1" width="39.55" height="43.69"/>  <g>   <path fill="#0071BC" d="M53.31,60.75c0-12.41,0-24.82,0-37.23c0-2,0-4,0-6c0-0.99-1.07,0.29-0.46,0.29c0.88,0,1.76,0,2.64,0    c7.25,0,14.49,0,21.74,0c3.37,0,6.74,0,10.11,0c1.09,0,2.18,0,3.28,0c1.92,0,0.74,0.26,0.74-0.72c0,4.99,0,9.98,0,14.97    c0,7.65,0,15.3,0,22.95c0,1.83,0,3.65,0,5.48c0,0.5,1.29-0.49,0.25-0.49c-1,0-2,0-3,0c-12.02,0-24.03,0-36.05,0    c-0.97,0-0.97,1.5,0,1.5c13.18,0,26.36,0,39.55,0c0.41,0,0.75-0.34,0.75-0.75c0-14.56,0-29.13,0-43.69c0-0.41-0.34-0.75-0.75-0.75    c-13.18,0-26.36,0-39.55,0c-0.41,0-0.75,0.34-0.75,0.75c0,14.56,0,29.13,0,43.69C51.81,61.71,53.31,61.71,53.31,60.75z"/>  </g> </g> <g>  <ellipse fill="#C7B570" cx="90.74" cy="80.74" rx="3.83" ry="4.65"/>  <g>   <path d="M90.74,76.84c4.1,0.29,4.1,7.51,0,7.8C86.68,84.92,86.64,77.13,90.74,76.84c0.96-0.07,0.97-1.57,0-1.5    c-6.03,0.42-6.03,10.38,0,10.8c2.89,0.2,4.47-2.99,4.58-5.4c0.13-2.72-1.87-5.21-4.58-5.4C89.78,75.27,89.79,76.77,90.74,76.84z"/>  </g> </g> </svg> </g></g></g><g id="sbt_2090" class="activeShape" transform="translate(888.8451194763184, 36.57499694824219)rotate(0, 91.03042085687562,144.7130406263906)"><g id="sbt_2090_scale" transform="scale(2.2118919965797774, 2.2118919965797774)"><g id="sbt_2090_natural" transform="translate(-30.909997940063477,-6.9500017166137695)"> <!-- Generator: Adobe Illustrator 14.0.0, SVG Export Plug-In . SVG Version: 6.00 Build 43363)  -->  <svg sbtid="2:cHJvcHMtZnVybml0dXJlLW9wZW5kb29yMS1jb2xvcg==" version="1.1" id="sbt_2090_svgImage" xmlns="http://www.w3.org/2000/svg" xmlns:xlink="http://www.w3.org/1999/xlink" x="0px" y="0px" width="144px" height="144px" viewBox="0 0 144 144" enable-background="new 0 0 144 144" > <g>  <polygon fill="#DDCFB3" points="31.88,11.5 31.88,126.29 37.98,126.29 38.14,17.01 82.45,17.01 82.29,126.29 88.71,126.29    88.71,11.5  "/>  <g>   <path d="M31.13,11.5c0,38.26,0,76.53,0,114.79c0,0.41,0.34,0.75,0.75,0.75c2.03,0,4.07,0,6.1,0c0.41,0,0.75-0.34,0.75-0.75    c0.04-24.11,0.07-48.23,0.11-72.34c0.02-11.56,0.03-23.12,0.05-34.69c0-0.73,0-1.47,0-2.2c0,0.79-1.3,0.7-0.05,0.7    c1.02,0,2.03,0,3.05,0c7.29,0,14.57,0,21.86,0c5.9,0,11.79,0,17.69,0c1.59,0,0.25-1.18,0.25-0.17c0,1.16,0,2.32,0,3.48    c-0.02,11.92-0.04,23.84-0.05,35.75c-0.03,23.16-0.07,46.31-0.1,69.47c0,0.41,0.34,0.75,0.75,0.75c2.14,0,4.28,0,6.42,0    c0.41,0,0.75-0.34,0.75-0.75c0-38.26,0-76.53,0-114.79c0-0.41-0.34-0.75-0.75-0.75c-18.94,0-37.89,0-56.83,0    c-0.97,0-0.97,1.5,0,1.5c11.76,0,23.53,0,35.29,0c6.33,0,12.66,0,18.99,0c0.67,0,1.33,0,2,0c1.09,0-0.2,0.05-0.2-0.7    c0,0.8,0,1.6,0,2.39c0,27.43,0,54.87,0,82.3c0,9.78,0,19.56,0,29.34c0,0.22,0,0.45,0,0.67c0-0.71,1.23-0.7,0.08-0.7    c-0.85,0-1.7,0-2.54,0s-1.7,0-2.54,0c-1.15,0,0.08,0,0.08,0.7c0-0.3,0-0.6,0-0.9c0.01-3.73,0.01-7.46,0.02-11.19    c0.04-29.17,0.09-58.34,0.13-87.51c0-3.21,0.01-6.42,0.01-9.63c0-0.41-0.34-0.75-0.75-0.75c-14.77,0-29.54,0-44.31,0    c-0.41,0-0.75,0.34-0.75,0.75c-0.04,24.11-0.07,48.23-0.11,72.34c-0.02,11.56-0.03,23.12-0.05,34.69c0,0.73,0,1.47,0,2.2    c0-0.67,1.22-0.7,0.12-0.7c-0.81,0-1.61,0-2.42,0s-1.61,0-2.42,0c-1.11,0,0.12,0.55,0.12,0.65c0-2.65,0-5.3,0-7.95    c0-35.58,0-71.16,0-106.75C32.63,10.53,31.13,10.53,31.13,11.5z"/>  </g> </g> <g>  <polygon fill="#DDCFB3" points="83.68,124.91 83.84,15.62 36.76,15.62 36.6,124.91 33.27,124.91 33.27,12.89 87.32,12.89    87.32,124.91  "/>  <g>   <path d="M84.43,124.91c0.05-36.43,0.11-72.85,0.16-109.28c0-0.41-0.34-0.75-0.75-0.75c-15.69,0-31.39,0-47.08,0    c-0.41,0-0.75,0.34-0.75,0.75c-0.04,24.11-0.07,48.23-0.11,72.34c-0.02,11.56-0.03,23.12-0.05,34.69c0,0.73,0,1.47,0,2.2    c0-0.88,1.19-0.7-0.42-0.7c-1.66,0-1.41-0.43-1.41,0.74c0-0.24,0-0.48,0-0.72c0-3.47,0-6.94,0-10.42c0-29.26,0-58.53,0-87.79    c0-3.91,0-7.81,0-11.72c0-1.89,0.2-0.61-0.66-0.61c1.56,0,3.11,0,4.67,0c14.43,0,28.86,0,43.28,0c1.73,0,3.45,0,5.18,0    c1.41,0,0.08-1.23,0.08-0.19c0,3.12,0,6.24,0,9.36c0,13.54,0,27.08,0,40.62c0,14.47,0,28.94,0,43.4c0,4.71,0,9.42,0,14.14    c0,1.12,0,2.25,0,3.37c0,0.18,0,0.37,0,0.55c0-1.1,0.66-0.74-1.07-0.74c-0.61,0-1.21,0-1.82,0c-0.97,0-0.97,1.5,0,1.5    c1.21,0,2.43,0,3.64,0c0.41,0,0.75-0.34,0.75-0.75c0-37.34,0-74.68,0-112.02c0-0.41-0.34-0.75-0.75-0.75c-18.02,0-36.04,0-54.06,0    c-0.41,0-0.75,0.34-0.75,0.75c0,37.34,0,74.68,0,112.02c0,0.41,0.34,0.75,0.75,0.75c1.11,0,2.22,0,3.33,0    c0.41,0,0.75-0.34,0.75-0.75c0.04-24.11,0.07-48.23,0.11-72.34C37.47,41,37.49,29.44,37.5,17.88c0-0.74,0-1.47,0-2.21    c0,0.78-1.3,0.7-0.08,0.7c0.97,0,1.94,0,2.91,0c7.15,0,14.3,0,21.45,0c6.5,0,13.01,0,19.51,0c0.7,0,1.41,0,2.11,0    c0.94,0-0.32-0.62-0.32-0.64c0,0.94,0,1.87,0,2.81c-0.02,11.66-0.03,23.32-0.05,34.98c-0.04,23.8-0.07,47.59-0.1,71.39    C82.93,125.88,84.43,125.87,84.43,124.91z"/>  </g> </g> <g>  <polygon fill="#B0A690" points="82.45,17.01 109.58,7.82 109.58,136.89 82.29,126.29  "/>  <g>   <path d="M82.65,17.73c5.62-1.9,11.23-3.81,16.85-5.71c2.95-1,5.9-2,8.84-3c1.92-0.65,0.49-1.57,0.49-0.57c0,9.02,0,18.05,0,27.07    c0,29.89,0,59.78,0,89.68c0,3.5,0,6.99,0,10.49c0,2.01,0,0.11,0.79,0.41c-2.4-0.93-4.79-1.86-7.19-2.79    c-6.43-2.5-12.87-5-19.3-7.49c-0.83-0.32-0.09,1.08-0.08-0.47c0-1.47,0-2.95,0.01-4.42c0.04-28.69,0.08-57.39,0.13-86.08    c0.01-5.94,0.02-11.89,0.03-17.83c0-0.97-1.5-0.97-1.5,0c-0.05,36.43-0.11,72.85-0.16,109.28c0,0.36,0.24,0.6,0.55,0.72    c9.1,3.53,18.19,7.06,27.29,10.6c0.46,0.18,0.95-0.27,0.95-0.72c0-43.02,0-86.05,0-129.07c0-0.47-0.48-0.88-0.95-0.72    c-9.04,3.07-18.09,6.13-27.13,9.2C81.34,16.6,81.73,18.05,82.65,17.73z"/>  </g> </g> <g>  <polyline fill="#B0A690" points="109.58,7.82 112.47,7.82 112.47,136.89 109.58,136.89  "/>  <g>   <path d="M109.58,8.57c0.62,0,1.25,0,1.87,0c1.47,0,0.27,0.15,0.27-0.71c0,0.2,0,0.4,0,0.6c0,1.19,0,2.38,0,3.57    c0,4.71,0,9.41,0,14.12c0,15.07,0,30.14,0,45.21c0,15.25,0,30.49,0,45.74c0,4.93,0,9.86,0,14.78c0,1.27,0,2.54,0,3.81    c0,0.32,0,0.63,0,0.95c0,0.07,0,0.14,0,0.21c0-1.05,0.57-0.71-1.12-0.71c-0.34,0-0.68,0-1.02,0c-0.97,0-0.97,1.5,0,1.5    c0.96,0,1.93,0,2.89,0c0.41,0,0.75-0.34,0.75-0.75c0-43.02,0-86.05,0-129.07c0-0.41-0.34-0.75-0.75-0.75c-0.96,0-1.93,0-2.89,0    C108.61,7.07,108.61,8.57,109.58,8.57L109.58,8.57z"/>  </g> </g> <g>  <g>   <rect x="100.8" y="77.31" fill="#C7B570" width="3.53" height="2.41"/>   <g>    <path d="M104.33,78.98c-1.18,0-2.35,0-3.53,0c0.25,0.25,0.5,0.5,0.75,0.75c0-0.8,0-1.61,0-2.41c-0.25,0.25-0.5,0.5-0.75,0.75     c1.18,0,2.35,0,3.53,0c-0.25-0.25-0.5-0.5-0.75-0.75c0,0.8,0,1.61,0,2.41c0,0.97,1.5,0.97,1.5,0c0-0.8,0-1.61,0-2.41     c0-0.41-0.34-0.75-0.75-0.75c-1.18,0-2.35,0-3.53,0c-0.41,0-0.75,0.34-0.75,0.75c0,0.8,0,1.61,0,2.41c0,0.41,0.34,0.75,0.75,0.75     c1.18,0,2.35,0,3.53,0C105.3,80.48,105.3,78.98,104.33,78.98z"/>   </g>  </g>  <g>   <ellipse fill="#C7B570" cx="100.28" cy="77.93" rx="3.01" ry="3.42"/>   <g>    <path d="M102.54,77.93c-0.07,1.34-0.82,2.58-2.26,2.67c-1.44,0.09-2.2-1.48-2.26-2.67c-0.07-1.33,0.92-2.58,2.26-2.67     C101.72,75.17,102.48,76.73,102.54,77.93c0.05,0.96,1.55,0.97,1.5,0c-0.11-2.2-1.48-4.02-3.76-4.17     c-2.28-0.15-3.66,2.2-3.76,4.17c-0.11,2.19,1.64,4.03,3.76,4.17c2.28,0.15,3.66-2.2,3.76-4.17     C104.09,76.96,102.59,76.96,102.54,77.93z"/>   </g>  </g> </g> </svg> </g></g></g><g id="sbt_2185" class="activeShape" transform="translate(966.0131629991771, 131.9989013671875)rotate(0, 38.28074490832477,93.50052138795806)"><g id="sbt_2185_scale" transform="scale(0.7462131956707202, 0.7462131956707202)"><g id="sbt_2185_natural" transform="translate(-121.5999755859375,-0.9999885559082031)"><!-- Generator: Adobe Illustrator 19.1.1, SVG Export Plug-In . SVG Version: 6.00 Build 0) --><svg sbtid="4:MzI0OA==" version="1.1" id="sbt_2185_svgImage" xmlns="http://www.w3.org/2000/svg" xmlns:xlink="http://www.w3.org/1999/xlink" x="0px" y="0px" width="315.7px" height="252px" viewBox="8 25 315.7 252" enable-background="new 8 25 315.7 252" ><g id="sbt_2185_TILT_Hair" transform="rotate(0, 170.1, 91.2)"><path fill="#FFFFFF" d="M168.8,96.6c-5,0-9.6-0.5-13.8-1.5c-2.1-0.5-4-1.6-5.8-2.8c-0.9-0.6-1.8-1.1-2.5-1.5 c-0.7-0.3-1.3-0.5-2.1-0.6c-1.2-0.3-2.6-0.6-3.9-1.6c-1-0.7-2.1-2.2-3.1-3.8c-0.5-0.7-1-1.5-1.3-1.9c-0.4-0.4-0.8-0.8-1.1-1 c-1-0.9-1.8-1.6-2.7-3.9c-0.8-1.8-0.5-3.5-0.2-5c0.2-1,0.3-1.9,0.2-2.8c-0.1-0.5-0.5-1.2-1-2c-0.8-1.4-1.8-3-1.8-4.8 c-0.1-2.2,0.8-4.3,1.7-6.2c0.4-0.9,0.8-1.8,1-2.6c0.2-0.6,0.2-1.2,0.2-1.9c0-1.2,0-2.6,0.7-4.1c0.5-1.1,1.6-2.4,2.9-3.8 c0.2-0.3,0.5-0.6,0.8-0.9c-0.4-0.7-0.4-1.6,0-2.2c0.9-1.4,2.7-3,4.5-4.5c0.4-0.4,1-0.8,1.5-1.3c-0.3-0.8-0.2-1.8,0.5-2.4 c3.2-3.2,6.5-4.7,9.3-5.9c0.6-0.2,1.2-0.4,1.9-0.4c0.8,0,1.5,0.2,2.1,0.3c0.4,0.1,0.7,0.2,0.9,0.2c0.3,0,0.9-0.4,1.4-0.6 c0.9-0.5,2-1.1,3.3-1.1c1.4,0,2.7,0.6,3.8,1.1c0.4,0.2,1.2,0.5,1.4,0.6c0.3,0,0.6,0.1,0.9,0.1c0.5,0,1-0.1,1.4-0.1 c0.5-0.1,1-0.1,1.5-0.1c0.7,0,1.3,0.1,1.9,0.4c3.6,1.7,5.8,4.9,7.1,7.4c1.5-0.8,3.6-1.6,6.6-1.6c2.7,0,5.7,0.7,8.8,2 c3.6,1.5,5.4,5,6.4,6.8c0.2,0.4,0.4,0.7,0.5,0.9c1,1.7,1.3,3.6,1.6,5.4c0.1,0.7,0.2,1.4,0.3,2c0.3,1.3,0.3,2.6,0.3,3.6 c0,0.8,0,1.5,0.1,1.9c0.1,0.1,0.1,0.2,0.4,0.5c0.7,0.6,1.7,1.5,2.1,3.7c0.4,2.2-0.7,7.9-2.1,10.6c-0.1,0.2,0.2,1.2,0.4,1.8 c0.3,1,0.6,2.2,0.5,3.4c-0.4,4-0.7,5.6-3.1,8.7c-0.4,0.5-1.1,0.8-1.7,0.8l0,0c-0.1,0-0.2,0-0.3,0c-0.1,0.1-0.2,0.3-0.2,0.4 c-0.9,1.4-1.8,2.9-2.9,3.6c-0.4,0.2-0.8,0.4-1.2,0.4c-0.2,0-0.3,0-0.5-0.1c-0.1,0.1-0.3,0.2-0.4,0.3c-0.8,0.7-1.6,1.4-2.4,1.8 c-0.3,0.1-0.6,0.2-0.9,0.2c-0.2,0-0.4,0-0.6-0.1c-0.3,0.2-0.6,0.3-0.8,0.5c-1.3,0.8-2.9,1.7-4.6,2.1c-5.1,1.1-10.6,1.6-16.1,1.6 C169.8,96.5,169.3,96.6,168.8,96.6z"/><path fill="rgb(247, 204, 97)" stroke="#000000" stroke-width="1.5" stroke-linecap="round" stroke-linejoin="round" d="M179.3,38.7 c0,0-2-6.5-7-8.8c-1.5-0.6-2.6,0.3-5.1,0c-1.3-0.1-3.5-1.7-5.1-1.7c-1.4,0-2.9,1.5-4.5,1.7c-1.3,0.1-2.7-0.9-4.2-0.3 c-2.9,1.2-5.8,2.6-8.6,5.4c4.3-0.3-4.4,4.9-6.2,7.8c3.9-0.8-2.6,4.4-3.6,6.7c-0.9,1.9-0.1,3.8-0.7,5.7c-0.8,2.7-2.7,5.3-2.6,8.1 c0,2.3,2.4,4.5,2.7,6.5c0.4,2.7-1,5.1-0.1,7.2c1.1,2.5,1.7,2.5,3.4,4.3c1.1,1.2,2.9,4.5,4.2,5.4c1.7,1.3,3.6,1,5.6,2 c2.5,1.2,5.1,3.5,7.9,4.1c4.7,1.1,9.7,1.5,14.8,1.4c5.7,0,11-0.6,15.7-1.6c2.9-0.6,6.1-3.8,6.4-2.5c1.5-0.7,3.9-4.1,4.2-2.3 c1.8-1.2,4.4-7.8,4.7-4.3c2.1-2.7,2.3-3.8,2.7-7.6c0.2-1.9-1.5-4.3-0.6-6c1.3-2.4,2.2-7.6,1.9-9.1c-0.5-2.6-1.7-2.2-2.4-3.8 c-0.6-1.5,0-3.5-0.5-5.8s-0.5-4.9-1.6-6.7c-0.9-1.4-2.4-5.4-5.9-6.9C183.7,33,179.3,38.7,179.3,38.7z" id="Hair_sbt_2185_0"/><path opacity="0.3" enable-background="new " d="M177.8,92.2c1.8,0.7,11.4-6,11.4-6s-9.9,5.3-11.1,4.5s-0.2-6.5-2.1-6.6 s-3.5,7.1-6.1,7s-3.8-7.3-5.6-7.5c-1.7-0.1-0.9,6.4-3.2,7s-10.2-8.3-10.2-8.3s6.9,10.6,9.8,9.8c2.9-0.8,1.9-2.3,3.9-2.2 c1.9,0.1,1.7,3.1,5.2,3.2s4.1-3.3,5.3-3S176,91.6,177.8,92.2z"/></g><g id="BodyWhite"><path fill="#FFFFFF" d="M169,159.7c-7.8-0.1-14.1-1.9-19.3-5.5c-1.7-1.2-1.6-3.9,0.2-8.8c0.1-0.2,0.2-0.6,0.4-1 c0.7-1.9,2-5.1,2.2-11.7c0-1.4-0.7-7.2-1.5-12c-5.9-22.7-4.8-24.5-4.4-25.2c1.2-2,5.1-3.1,11.6-3.1l0,0c0.1,0,0.2,0,0.3,0h0.3 c0.1,0,0.1,0,0.2,0c0.4,0,0.8,0,1.4,0.1c1.2,0.1,3.6,0.3,7.5,0.3c0,0,1.5-0.3,1.6-1.9s-0.6-2.7,0.6-2.7s0.8,0.5,0.6,2.7 c-0.2,2.2,1.6,2,1.6,2c4.8,0,6.7-0.3,7.9-0.4c0.5-0.1,1-0.1,1.4-0.1c0.2,0,0.4,0,0.5,0h0.2h0.2h0.1c2.8,0,9.2,0.4,10.5,2.7 c0.3,0.6,0.4,1.2,0.2,1.9c-1.5,4-2.8,16.7-3.3,22.8v0.1c-0.8,5-1.6,10.8-1.6,12.1c0.3,6.8,2,11.7,2.9,13.4l0.1,0.2 c2.7,6.5,1.9,8.4,1.1,9.3c-3.3,3.6-15.8,5-22.9,5L169,159.7z"/></g><g id="sbt_2185_SWAP_Legs-Here"><g xmlns="http://www.w3.org/2000/svg" id="L-Stand" display=""><g id="XMLID_624_"><path fill="#FFFFFF" d="M191.6,276.6c-2.4,0-6.7-0.2-8.8-1.9c-0.7-0.5-1.6-1-2.5-1.5c-2.2-1.2-4.7-2.6-5.1-5.3 c-0.3-2.3,1.1-4.6,4.3-7.7c0.2-0.1,0.3-0.3,0.5-0.4c0,0,0.3-0.3,0.5-0.4c0.8-0.7,1.9-1.8,3.1-2.4l-0.2-3c-2.7-0.2-5.9-0.9-7.4-2.3 c-1.9-1.8-1.6-4.3-1.2-7c0.2-1.3,0.4-2.8,0.3-4.4c-0.1-3.4-2.3-21.3-3.6-31.3l-1.1-10.5c-0.3,4.7-0.6,8.7-0.6,10.3 c0,2.4-0.7,8.6-1.4,15c-0.7,6.9-1.5,14.1-1.5,16.5c0,1.6,0.1,3.1,0.2,4.4c0.2,3.1,0.4,5.4-1,6.9c-1.2,1.3-4.2,2-7,2.3l-0.2,2.8 c1.7,0.6,2.4,1.9,3.3,2.8c0.2,0.2,0.5,0.4,0.5,0.4c0.2,0.1,0.3,0.2,0.4,0.3c3.3,3.1,4.6,5.4,4.4,7.7c-0.3,2.7-2.8,4.1-5,5.3 c-0.9,0.5-1.8,1-2.5,1.6c-2,1.6-6.3,1.8-8.7,1.8c-0.1,0-8.2,0-10.2-1.5c-1-0.8-1.5-1.8-1.5-2.9c0-2.4,2.4-4.2,5.4-6.4 c0.3-0.3,0.7-0.5,1-0.8c0.5-0.6,1.2-1.2,1.9-1.8c0.6-0.5,1.3-1.1,2-1.8l0.1-0.1c0.4-0.3,0.9-0.9,1.5-1.6c0.8-0.9,2.2-1.8,3.1-2.5 l0.2-3.3c-2-0.1-4.3-0.4-5.6-0.9c-3.4-1.4-2.8-4.6-2.5-6c0.1-0.4,0.2-0.8,0.2-1l0,0c0-2.3,0.7-27,1.1-37.8c0-0.2-0.7-26.9,0.2-45 c0.5-8.2,2.3-15.8,3.3-17.2c1.2-1.7,3.5-1.9,5.2-1.9c1.8,0,4,0.3,6.3,0.6c2.6,0.3,5.4,0.7,8,0.7s5.5-0.4,8-0.7 c2.4-0.3,4.5-0.6,6.2-0.6s4,0.2,5.1,2.1c0.9,1.4,2.9,8.2,3.3,16.4c0.4,7.3,0.3,16.3,0.1,25.1c-0.1,7.1-0.2,14.4,0,20.5 c0.4,8.4,1.2,35.4,1.1,37.8c0,0.2,0.1,0.6,0.2,0.9c0.3,1.4,1,4.6-2.5,6c-1.3,0.5-2.8,0.8-4.5,1l0.2,2.7c1.3,0.6,2.4,1.9,3.4,3.1 c0.6,0.6,1.1,1.2,1.5,1.6l0.1,0.1c0.7,0.7,1.4,1.3,1.9,1.8c0.7,0.6,1.4,1.2,1.9,1.8c0.3,0.3,0.7,0.5,1,0.8c3,2.3,5.4,4.1,5.4,6.4 c0,1.1-0.5,2.1-1.4,2.8C199.8,276.6,191.7,276.6,191.6,276.6z"/><line fill="none" stroke="#000000" stroke-width="1.5" stroke-linecap="round" stroke-linejoin="round" x1="179.8" y1="157.4" x2="186.2" y2="262.9"/><line fill="none" stroke="#000000" stroke-width="1.5" stroke-linecap="round" stroke-linejoin="round" x1="162.3" y1="157.4" x2="156.4" y2="262.9"/><g><g><path fill="rgb(73, 76, 52)" stroke="#000000" stroke-width="1.5" stroke-linecap="round" stroke-linejoin="round" d="M150.4,264.2 c-4,3.8-10.6,7-8,9.1c0.8,0.6,5.3,1.1,8.9,1.1c2.4,0,6-0.3,7.4-1.4c4.1-3.1,11.1-3.8,3.1-11.2 C159.3,259.6,154.4,260.4,150.4,264.2z" id="EarthyTones_sbt_2185_0"/><path fill="rgb(243, 223, 199)" stroke="#000000" stroke-width="1.5" stroke-linecap="round" stroke-linejoin="round" d="M151.4,263 c-3.1,3-5.3,4-3.8,5.6c1.5,1.7,6,1.8,9.4-1.1c3.1-2.7,7.3-3.1,4.3-6.1c-0.9-0.8-3.1-3.2-4.9-3C154.8,258.7,153,261.6,151.4,263z " id="Skin_sbt_2185_0"/></g><g><path fill="rgb(73, 76, 52)" stroke="#000000" stroke-width="1.5" stroke-linecap="round" stroke-linejoin="round" d="M192.5,264.2 c4,3.8,10.6,7,8,9.1c-0.8,0.6-5.3,1.1-8.9,1.1c-2.4,0-6-0.3-7.4-1.4c-4.1-3.1-11.1-3.8-3.1-11.2 C183.6,259.6,188.5,260.4,192.5,264.2z" id="EarthyTones_sbt_2185_1"/><path fill="rgb(243, 223, 199)" stroke="#000000" stroke-width="1.5" stroke-linecap="round" stroke-linejoin="round" d="M191.5,263 c3.1,3,5.3,4,3.8,5.6c-1.5,1.7-6,1.8-9.4-1.1c-3.1-2.7-7.5-3.1-4.3-6.1c0.9-0.8,3.1-3.2,4.9-3 C188.1,258.7,189.9,261.6,191.5,263z" id="Skin_sbt_2185_1"/></g></g><path id="Modern_sbt_2185_0" fill="rgb(88, 100, 109)" stroke="#000000" stroke-width="1.5" stroke-linecap="round" stroke-linejoin="round" d=" M170.9,147.4c-7.3,0-16.1-2.6-17.7-0.2c-0.5,0.7-2.4,7.4-2.9,16c-0.9,18.1-0.2,45-0.2,45s-1.2,36.6-1.1,37.7c0,1.7-1.4,4,1,5 c4.5,1.8,13.5,0.3,14.6-0.9s0.2-5,0.2-9.8s2.8-26.7,2.9-31.6c0.1-4.9,2.4-34.4,2.4-34.4l3.7,34.4c0,0,3.5,27,3.6,31.6 s-1.5,8.2,0.2,9.8s9.3,2.7,13.9,0.9c2.5-1,1-3.3,1-5c0.1-1.1-0.7-28.7-1.1-37.7c-0.4-13.7,0.6-32.5-0.1-45.6 c-0.4-8.4-2.4-14.5-3-15.4C186.9,144.8,178.2,147.4,170.9,147.4z"/><path fill="none" stroke="#000000" stroke-width="1.5" stroke-linecap="round" stroke-linejoin="round" d="M182.1,155.7 c0.6,2.6,8.5,3,8.5,3"/><path fill="none" stroke="#000000" stroke-width="1.5" stroke-linecap="round" stroke-linejoin="round" d="M160.2,155.3 c-0.6,2.6-9.4,3-9.4,3"/><path fill="none" stroke="#000000" stroke-width="1.5" stroke-linecap="round" stroke-linejoin="round" d="M167.9,153.1 c0,0-1,13.7,0.6,14.1"/><path opacity="0.3" enable-background="new " d="M179.1,210.2c0,0,2.2,1.8,5.7,1.5s5.8-3.6,5.8-3.6s-1.8,4.8-5.6,5 C180.4,213.3,179.1,210.2,179.1,210.2z"/><path opacity="0.3" enable-background="new " d="M162.6,210.6c0,0-2.9,1.8-6.4,1.5s-5.1-3.6-5.1-3.6s1,4.8,4.9,5 C160.6,213.6,162.6,210.6,162.6,210.6z"/><path opacity="0.3" enable-background="new " d="M167,207.7c2-8.8,1.6-17,2.5-23.3c0.7-3.4,0.7-7.9,0.7-9.4 c-0.3,3-0.5,20.7-5.7,35.5c0.7,13.7-1.8,23.3-2.7,30.6c-0.1,1.1,0,6.5-0.1,7.2c-0.3,1.6-3.1,2.4-3.1,2.9l1.5,0.1 c0.2-0.2,4.1,0.3,4.4-1.7c0.1-0.7-0.2-7.7-0.1-8.8C165.5,232.8,167.7,220.7,167,207.7z"/><path opacity="0.3" enable-background="new " d="M174.5,207.9c-2-8.8-2.6-17-3.4-23.3c-0.7-3.4-0.7-10.1-0.7-11.6 c0.3,3,1.2,22.9,6.4,37.7c-0.7,13.7,2.5,23.3,3.4,30.6c0.1,1.1-0.5,4.3-0.2,6.4c0.3,2.1,3.3,3.2,3.3,3.7l-6.5-2 c-0.2-0.2,0.7-7.4,0.6-8.5C176.5,232.9,173.9,220.8,174.5,207.9z"/></g></g></g><g id="Body"><g><path fill="rgb(146, 106, 166)" stroke="#000000" stroke-width="1.5" stroke-linecap="round" stroke-linejoin="round" stroke-miterlimit="10" d=" M189.4,146.5c-1-2-2.8-7.3-3.1-14.3c-0.1-2.3,1.6-12.5,1.6-12.5s1.5-18,3.5-23.4c-0.7-1.1-7.5-1.5-8.7-1.6l-11.8,1.5l-12.5-1.5 c-1.8,0-8.7,0.3-9.8,2.1s4.6,23.7,4.6,23.7s1.6,10.2,1.5,12.5c-0.3,8.2-2,11.4-2.7,13.4c0,0-2.1,5.5-1,6.3c3.3,2.3,8.7,5,18,5.1 s19.5-1.8,21.7-4.3C191.8,152.4,189.4,146.5,189.4,146.5z" id="AlternateModern_sbt_2185_0"/><path fill="rgb(243, 223, 199)" stroke="#000000" stroke-width="1.5" stroke-linecap="round" stroke-linejoin="round" d="M158.4,94.9 c0.8-0.5,1.4,0.2,11.7,0.3s11-0.8,12.3-0.5c0.6,0.2,1.3,2.4,0.2,4.7c-0.6,1.3-4.7,2-6.9,2.9c-1.9,0.9-2.8,1.5-5.5,2.2 c-3.2,0-5.7-0.4-7.4-1.3C161.5,102.7,157.8,95.3,158.4,94.9z" id="Skin_sbt_2185_8"/><line fill="none" stroke="#000000" stroke-width="1.5" stroke-linecap="round" stroke-linejoin="round" x1="170" y1="90.6" x2="170" y2="95"/><path opacity="0.3" enable-background="new " d="M185.2,95.3c0,0,0.1,1.4-0.1,3.1c-0.5,0.9-1.5,2.7-3.2,3.5 c-1.2,0.6-2.7,0.5-4.8,1.3c-1.2,0.4-5.2,2.9-5.2,2.9s4.6-0.8,6-2.1c0.7-0.6,2.3-0.6,3.9-1.2c1.1-0.4,2.1-1.1,2.7-1.6 c-0.4,1.3-0.9,2.5-1.8,3.3c-2.8,2.3-14.3,6.1-14.3,6.1s12.1-2,15.6-5.3S185.2,95.3,185.2,95.3z"/><path opacity="0.3" enable-background="new " d="M187.5,95.5c-0.6-0.7,0.8,8.1-3.6,11.7c-1.4,1.1-7.8,4.3-13.8,4.2 c-5.5,0-10.8-1.9-11.7-2.8c-1.8-1.6-3.2-6.4-3.2-7.6c0-1.3,0.1-2.4,0.1-2.4c0.5,2.9,1.4,6.5,3,7.4c8.5,4.9,18.3,0.5,18.3,0.5 s-9.1,2.9-17.5-1.8c-1.7-1-3.1-7.3-3.3-9.8c-0.1-0.6-1.6,0.5-1.6,0.5c-0.1,0.8-0.8,10.3,3.3,14.1c1.3,1.2,6.9,3.1,12.8,3.1 c6.3,0,12.9-3.4,14.6-4.8C189.7,103.9,188.1,96.2,187.5,95.5z"/><path opacity="0.3" enable-background="new " d="M169.6,155.5c0,0,14.2,0.6,16.8-2.8c2.7-3.4-1.2-8.9-1.2-8.9s0.5,4.1-0.7,6.3 C182,155.3,169.6,155.5,169.6,155.5z"/></g></g><g id="sbt_2185_TILT_Head" transform="rotate(0, 170.1, 91.2)"><g><path fill="rgb(243, 223, 199)" stroke="#000000" stroke-width="1.5" stroke-linecap="round" stroke-linejoin="round" d="M190,65.4 c0.1-0.7,0.1-1.3,0.1-2c0-13.6-5.4-26.7-19.9-27l0,0c-0.1,0-0.3,0-0.4,0l0,0l0,0c-0.1,0-0.3,0-0.4,0l0,0 c-14.5,0.3-19.9,13.4-19.9,27c0,0.7,0,1.3,0.1,2c-9.1-2.9-1.7,10.5-1.1,10.7c1.4,1,3.1,1.5,5.1,1.3C155.4,87.6,166,91,170.3,91 s14.1-3.4,15.9-13.6c2,0.2,3.7-0.3,5.1-1.3C191.7,75.9,199.1,62.5,190,65.4z" id="Skin_sbt_2185_9"/><path fill="none" stroke="#000000" stroke-linecap="round" stroke-linejoin="round" d="M187.9,69.2c0.8-1.8,5.2-3,4.2-0.1"/><path fill="none" stroke="#000000" stroke-linecap="round" stroke-linejoin="round" d="M189.5,68c1.2,1.9,0.4,4.8-1.4,6.1"/><path fill="none" stroke="#000000" stroke-linecap="round" stroke-linejoin="round" d="M151.4,69.2c-0.8-1.8-5.2-3-4.2-0.1"/><path fill="none" stroke="#000000" stroke-linecap="round" stroke-linejoin="round" d="M149.8,68c-1.2,1.9-0.4,4.8,1.4,6.1"/></g><g id="sbt_2185_Library_Face-Pt"><circle cx="153.2" cy="52.5" r="0.4"/></g><g id="sbt_2185_Library_Face"><g id="gls_1469462879726" transform="translate(3.1999999999999886, 2.700000762939453)">   <path fill="none" stroke="#000000" stroke-linecap="round" stroke-linejoin="round" stroke-miterlimit="10" d="M162,77.9    c0,0,4.9,3.3,11.1,0.1"/>   <rect x="150.2" y="49.8" fill="none" width="34.6" height="37"/>   <g>    <path fill="#FFFFFF" stroke="#000000" stroke-linecap="round" stroke-linejoin="round" stroke-miterlimit="10" d="M162.8,67.3     c0,0-0.5-3.2-1.4-3.8c-0.9-0.6-3.8-2-9.5-1c-1.1,0.2,0.4,3.9,1.2,4.3C154,67.2,157.6,68.4,162.8,67.3z"/>    <path fill="rgb(65, 95, 122)" stroke="#000000" stroke-linecap="round" stroke-linejoin="round" stroke-miterlimit="10" d="M154.5,62.5     c0,0-0.2,4,2.9,4c3.1,0,2.4-3.7,2.4-3.7S157.3,61.6,154.5,62.5z" id="Eyes_sbt_2185_faces_front_80"/>    <path fill="rgb(247, 204, 97)" stroke="#000000" stroke-linecap="round" stroke-linejoin="round" stroke-miterlimit="10" d="M150,59.2     c0,0,9.6-4.1,13.7-3.1c1,0.3-0.2,1.9-1.2,1.9S156.1,56.6,150,59.2z" id="Hair_sbt_2185_faces_front_88"/>   </g>   <g>    <path fill="#FFFFFF" stroke="#000000" stroke-linecap="round" stroke-linejoin="round" stroke-miterlimit="10" d="M171.3,67.3     c0,0,0.5-3.2,1.4-3.8c0.9-0.6,3.8-2,9.5-1c1.1,0.2-0.4,3.9-1.2,4.3C180.1,67.2,176.5,68.4,171.3,67.3z"/>    <path fill="rgb(65, 95, 122)" stroke="#000000" stroke-linecap="round" stroke-linejoin="round" stroke-miterlimit="10" d="M179.6,62.5     c0,0,0.2,4-3,4c-3.2,0-2.5-3.7-2.5-3.7S176.8,61.6,179.6,62.5z" id="Eyes_sbt_2185_faces_front_81"/>    <path fill="rgb(247, 204, 97)" stroke="#000000" stroke-linecap="round" stroke-linejoin="round" stroke-miterlimit="10" d="M183.8,59.2     c0,0-9.6-4.1-13.7-3.1c-1,0.3,0.2,1.9,1.2,1.9S177.7,56.6,183.8,59.2z" id="Hair_sbt_2185_faces_front_89"/>   </g>  </g></g><g><g><path fill="none" stroke="#010101" stroke-width="0.75" stroke-linecap="round" stroke-linejoin="round" d="M173.2,73.4 c0,0,1.7,2-1.2,2"/><path fill="none" stroke="#010101" stroke-width="0.75" stroke-linecap="round" stroke-linejoin="round" d="M167.2,73.4 c0,0-1.7,1.8,1.2,2"/></g><path fill="none" stroke="#010101" stroke-width="0.75" stroke-linecap="round" stroke-linejoin="round" d="M168.1,75 c0,0,2.2,2.6,4.2-0.1"/></g><path fill="rgb(247, 204, 97)" d="M195.3,62.7c0,0-2.8,2.5-5.2,1.3c-2.4-1.1-1.8-0.4-2.2-1.9s-0.1-3.4-0.6-5.3c-0.5-1.8-2.3-3.8-3.1-4.9 s-0.7-2.6-1.5-3.8s-2.1-2.3-3.6-2.5c-1.6-0.2-4.4,1.9-4.4,1.9s-2.3-7.3-9.3,5.3c-0.4-1.2,0.3-2.4,0.5-3.5c0.2-0.9,0.3-2.9,0.6-3.6 c0.5-1,1.2-0.7,1.7-1.4c0.8-1.2,0.6-2,0-2c-1.4-0.1-2.4,0.8-4.5,1.5c-0.8,0.3-0.8,1.4-1.4,1.9c-0.7,0.5-2.1,0.5-2.8,1.2 c-0.7,0.8-0.6,2.5-1.2,3.5c-0.4,0.8-1.6,0.8-2,1.6c-0.4,0.9-0.1,2.6-0.5,3.5c-0.5,1.1-1.6,1.6-2,2.7c-0.5,1.3-0.2,3.3-0.6,4.5 c-0.5,1.5-4,6.3-5,6.5c-4.3,0.8-4.4-2.4-4.4-2.4l9-32.4l22.2-0.8c0,0,3,1.4,4.1,5.7c0.6-0.4,3.8-1.7,3.8-1.7l12.7,11.6v13.5H195.3z " id="Hair_sbt_2185_3"/><path fill="none" stroke="#000000" stroke-width="1.5" stroke-linecap="round" stroke-linejoin="round" d="M144.8,68.5 c4.3,3.6,7.6-4.2,8.1-5.7c0.4-1.2,0.2-3.2,0.6-4.5c0.4-1.1,1.6-1.6,2-2.7c0.4-1,0.1-2.6,0.5-3.5c0.4-0.8,1.5-0.9,2-1.6 c0.6-1,0.5-2.6,1.2-3.5c0.6-0.8,2-0.7,2.8-1.2c0.7-0.5,0.7-1.6,1.4-1.9c2.1-0.7,3.1-1.7,4.5-1.5c0.7,0.1,0.8,0.8,0.1,2 c-0.3,0.5-1.4,1-1.7,1.6c-0.5,0.9-0.2,1.9-0.5,2.9c-0.3,1.3-1.1,2.6-0.6,4.1c7-12.6,9.3-5.3,9.3-5.3s2.8-2.1,4.4-1.9 c1.6,0.2,2.9,1.3,3.6,2.5c0.8,1.2,0.7,2.6,1.5,3.8s2.6,3.1,3.1,4.9s0.2,3.8,0.6,5.3c0.4,1.5,2.1,2.4,2.9,2.6"/><path opacity="0.3" enable-background="new " d="M173.4,36.6c0,0-0.8-5.9-3.1-5.8c-2.3,0-1.1,2.8-2.6,2.4 c-1.5-0.4-3.2-2.1-5.3-1.8c-2.1,0.3,0.7,1.5,0.3,2.3c-0.4,0.9-8.7-1.5-8.7-1.5s9.5,4.7,10.6,3.6s-1.7-2.5-0.2-2.7s1.9,2.2,4.2,2.6 c2.3,0.3,0.9-1.3,1.6-1.7C170.9,33.6,173.4,36.6,173.4,36.6z"/><path opacity="0.3" enable-background="new " d="M152,50.1c1.4,0.4,1.6,1.5,1.2,4.1c-0.4,2.6-2.9,1.6-3.3,3.5 c-0.3,1.7,1.5,2,1.5,4.2c0,2.2-4,6.3-4,6.3s3-3.6,2.8-6.9c-0.1-1.5-1.9-2.2-1.4-3.8c0.8-2.7,2-1.7,3.4-3.7 C152.6,53.1,152.2,52.1,152,50.1z"/><path opacity="0.3" enable-background="new " d="M135.9,51.6c0,0,0.6,3.7-0.3,5.1s-2.4,2.1-1.9,6.4s2.1,3.3,2.5,6.1 s-1.4,5.6-0.4,7.8s4.7,4.3,4.7,4.3s-1.7-3.7-1.8-5.8s1.4-6.2,0.8-9.1c-0.6-2.9-3.2-2-3.3-4.3c-0.1-2.3,1.7-4.2,1.5-6.5 S135.9,51.6,135.9,51.6z"/><path opacity="0.3" enable-background="new " d="M179.5,41.5c0,0,3.3-4.5,5.1-3.9s1.9,1.8,3.1,1.9c1.3,0.1,1.9-2,3.5-1.2 s2.2,3,2.3,3.8s3.6-1.1,4.7,0.8s-0.6,6.9-0.4,5.9c0.4-2-0.5-4.3-0.8-5.2c-0.4-0.8-2.6,1.5-4.7-0.7c-0.9-0.9-0.4-2.8-1.6-3.4 c-1.1-0.6-2.4,2.1-4.3,1.8c-1.9-0.3-2.1-2-2.5-2.5C183.5,38.3,179.5,41.5,179.5,41.5z"/><path opacity="0.3" enable-background="new " d="M200.8,53.1c0,0-0.6,3.7,0.3,5.1s2.4,2.1,1.9,6.4s-2.1,3.3-2.5,6.1 s1.4,5.6,0.4,7.8s-3.2,4.3-3.2,4.3s0.2-3.7,0.3-5.8s-1.4-6.2-0.8-9.1s3.2-2,3.3-4.3c0.1-2.3-1.7-4.2-1.5-6.5S200.8,53.1,200.8,53.1 z"/><path opacity="0.3" enable-background="new " d="M175.8,44.7c0,0,4.6-1.2,5.9-0.7s2.5,4.9,3.8,6.9s2.1,0.2,2.9,1.9 s0.5,3.8,0.5,3.8s0.9-4.8,0.6-5.9s-2.4,0.4-2.9-1.1s-0.9-6.1-3.3-7S175.8,44.7,175.8,44.7z"/></g><g id="sbt_2185_TILT_Neck-Pt"><circle cx="170.1" cy="91.2" r="0.4"/></g><g id="sbt_2185_SWAP_RA-Here"><g xmlns="http://www.w3.org/2000/svg" id="RA-Hold" display=""><g display="inline"><path fill="#FFFFFF" d="M198.2,127.9c-0.2,0-0.4,0-0.6-0.1c-0.7-0.2-1.2-0.7-1.5-1.4l-4.9-13.4c0,0.3,0,0.5,0,0.8 c0,0.2,0,0.4-0.1,0.6c-0.2,0.6-0.6,2.1-1.7,2.7c-0.3,0.2-1.1-21.9-0.9-21.9c1.2,0,4.3-3.8,8.4,3.1c2,3.3-0.6,5-1.7,5.7 c-0.7,0.4-1.4,0.9-2.1,1.7L199,122l12.3-10.3c-0.1-0.4-0.2-0.9-0.2-1.4l0,0c0.1-3,12.3-10.7,15.7-11.1c0.2,0,0.5,0,0.7,0 c2.2,0,3.8,1.4,4.2,3.6v0.2c0.5,3.6-3,6.7-5.1,8.2c-3.3,2.3-7.4,3.8-10.4,3.8c-0.6,0-1.2-0.1-1.7-0.2l-15.2,12.7 C199.2,127.7,198.7,127.9,198.2,127.9z"/><polyline fill="none" stroke="#000000" stroke-width="1.5" stroke-linecap="round" stroke-linejoin="round" stroke-miterlimit="10" points=" 220.5,107.2 198.3,125.8 189.2,100.7 "/><path fill="rgb(243, 223, 199)" stroke="#000000" stroke-width="1.5" stroke-linecap="round" stroke-linejoin="round" d="M229.9,103.2 c0.8,6-16.4,13.4-16.3,7.2C213.5,110.4,228.7,96.5,229.9,103.2z" id="Skin_sbt_2185_13"/><path fill="rgb(146, 106, 166)" stroke="#000000" stroke-width="1.5" stroke-linecap="round" stroke-linejoin="round" stroke-miterlimit="10" d=" M188.3,95.3c0,0,4.3-0.3,7,4.2c2.4,3.9-6.3,0.7-6.1,14.5c-1.1,4.2-1.5-3.1-1.5-3.1" id="AlternateModern_sbt_2185_4"/></g></g></g><g id="sbt_2185_SWAP_LA-Here"><g xmlns="http://www.w3.org/2000/svg" id="LA-Down" display=""><g><path fill="#FFFFFF" d="M142.1,174.8c-0.6,0-1.3-0.2-2-0.5l-0.2-0.1l0,0c-3.1-1.7-3.9-6.1-4-9.6c-0.1-4.5,1.1-12.5,4.9-14.6 c0.3-0.2,0.6-0.3,1-0.4l3.6-45c-0.2-0.2-0.5-0.3-0.7-0.5c-1.1-0.7-3.8-2.4-1.7-5.7c4.2-6.5,7.2-3.8,8.4-3.8 c-2.7,6.9,0.3,23,0.2,23c-2,0-2.5-2.1-2.7-2.9c0-0.2-0.1-0.4-0.1-0.6c0-1-2.8,37-2.8,37c0.1,0.2,0.2,0.4,0.2,0.6 c0.9,5.7,2.4,19.2-1.7,22.2C143.7,174.5,142.9,174.8,142.1,174.8z"/><path fill="rgb(243, 223, 199)" stroke="#000000" stroke-width="1.5" stroke-linecap="round" stroke-linejoin="round" d="M141,172.3 c-5.7-2.7-2.5-23.9,2.9-20.2C143.9,152.1,147.4,175.3,141,172.3z" id="Skin_sbt_2185_15"/><line fill="none" stroke="#000000" stroke-width="1.5" stroke-linecap="round" stroke-linejoin="round" stroke-miterlimit="10" x1="147.8" y1="101.7" x2="143.5" y2="151.9"/><path fill="rgb(146, 106, 166)" stroke="#000000" stroke-width="1.5" stroke-linecap="round" stroke-linejoin="round" stroke-miterlimit="10" d=" M152.3,111c0,0-0.4,7.3-1.5,3.1c0.2-13.8-8.5-10.6-6.1-14.5c2.7-4.5,6.7-4.2,6.7-4.2" id="AlternateModern_sbt_2185_6"/></g></g></g></svg> </g></g></g><g id="sbt_2452" class="activeShape" transform="translate(814.0999908447266, 64.6500015258789)rotate(0, 89.90000915527344,53.349998474121094)"><g id="sbt_2452_scale" transform="scale(1, 1)"><g id="sbt_2452_natural" transform="translate(-10.099998474121094,-49.5)"><!-- Generator: Adobe Illustrator 19.2.1, SVG Export Plug-In . SVG Version: 6.00 Build 0) --><svg sbtid="4:NTc5Mw==" version="1.1" id="sbt_2452_svgImage" xmlns="http://www.w3.org/2000/svg" xmlns:xlink="http://www.w3.org/1999/xlink" x="0px" y="0px" width="200px" height="200px" viewBox="0 0 200 200" enable-background="new 0 0 200 200" ><g id="sbt_2452-spring-inner-rectangle-horizontal"><rect x="11.7" y="97.1" fill="rgb(255, 255, 255)" width="176.8" height="6.2" id="PaleColorWithWhite_sbt_2452_0"/></g><g id="sbt_2452-spring-inner-rectangle-vertical"><rect x="96.9" y="51" fill="rgb(255, 255, 255)" width="6.2" height="98" id="PaleColorWithWhite_sbt_2452_1"/></g><g id="sbt_2452-spring-corner-top-left"><path fill="rgb(255, 255, 255)" d="M99.8,100.3V50.6c-48.9,0.1-88.6,22.3-88.7,49.7H99.8z" id="PaleColorWithWhite_sbt_2452_2"/><path fill="rgb(0, 0, 0)" d="M12.1,98.9c1-26,39.3-47,86.5-47.4v-2c-48.2,0.4-87.3,22.2-88.5,49.2v0.2C10.1,98.9,12.1,98.9,12.1,98.9z" id="PrimaryColorWhiteAndBlack_sbt_2452_0"/></g><g id="sbt_2452-spring-corner-bottom-left"><path fill="rgb(255, 255, 255)" d="M11.2,100c0.1,27.4,39.8,49.6,88.7,49.7V100H11.2z" id="PaleColorWithWhite_sbt_2452_3"/><path fill="rgb(0, 0, 0)" d="M98.5,148.5v2c-47.9-0.5-86.9-22.1-88.4-48.9v-0.2H12C13.3,127.3,51.5,148.1,98.5,148.5z" id="PrimaryColorWhiteAndBlack_sbt_2452_1"/></g><g id="sbt_2452-spring-corner-top-right"><path fill="rgb(255, 255, 255)" d="M99.9,100.3V50.6c48.9,0.1,88.6,22.3,88.7,49.7H99.9z" id="PaleColorWithWhite_sbt_2452_4"/><path fill="rgb(0, 0, 0)" d="M188,98.9c-1-26-39.3-47-86.5-47.4v-2c48.2,0.4,87.2,22.2,88.4,49.2v0.2C189.9,98.9,188,98.9,188,98.9z" id="PrimaryColorWhiteAndBlack_sbt_2452_2"/></g><g id="sbt_2452-spring-corner-bottom-right"><path fill="rgb(255, 255, 255)" d="M100,100h88.7c0,13-9,24.8-23.6,33.6l11.9,19.7l-23.6-13.7c-14.9,6.3-33.3,10.1-53.4,10.1V100z" id="PaleColorWithWhite_sbt_2452_5"/><path fill="rgb(0, 0, 0)" d="M101.5,148.5c19.6-0.2,37.6-3.9,52-10l20.5,12l-10.2-17.1c14.4-8.4,23.5-19.6,24.1-32h2v0.2 c-0.7,12.4-9.5,23.8-23.5,32.4l13.4,22.2l-26.6-15.5c-14.5,6-32.4,9.6-51.6,9.8V148.5z" id="PrimaryColorWhiteAndBlack_sbt_2452_3"/></g><g id="sbt_2452-spring-long-piece-bottom"><rect x="98.3" y="148.5" fill="rgb(0, 0, 0)" width="3.5" height="2" id="PrimaryColorWhiteAndBlack_sbt_2452_4"/></g><g id="sbt_2452-spring-long-piece-top"><rect x="98.3" y="49.5" fill="rgb(0, 0, 0)" width="3.5" height="2" id="PrimaryColorWhiteAndBlack_sbt_2452_5"/></g><g id="sbt_2452-spring-long-piece-right"><rect x="188" y="98.7" fill="rgb(0, 0, 0)" width="1.9" height="2.9" id="PrimaryColorWhiteAndBlack_sbt_2452_6"/></g><g id="sbt_2452-spring-long-piece-left"><rect x="10.1" y="98.7" fill="rgb(0, 0, 0)" width="2" height="2.9" id="PrimaryColorWhiteAndBlack_sbt_2452_7"/></g><g id="sbt_2452-spring-inner-rectangle"><rect x="40" y="65.5" fill="rgb(255, 255, 255)" width="120.5" height="69.5" id="PaleColorWithWhite_sbt_2452_6"/><rect id="sbt_2452_TextBoxArea" x="39.5" y="65.5" fill="none" width="120.5" height="69.5"/></g></svg> </g></g><g id="sbt_2452_text"><text x="89.6500015258789" y="46.083333333333336" id="ts_2541" style="font-size:14pt;font-family:'Francois One';fill:#000000; text-anchor:middle;" class="DisableSelection">That's how </text><text x="89.6500015258789" y="64.75" id="ts_2542" style="font-size:14pt;font-family:'Francois One';fill:#000000; text-anchor:middle;" class="DisableSelection">doors work! </text></g></g><g id="SvgTop"/>              </svg>